<svg width="14" height="14" viewBox="0 0 14 14" fill="none" xmlns="http://www.w3.org/2000/svg">
<path d="M1.98035 3.66658L2.39999 3.93843L1.98035 3.66658ZM7.95192 1.11529L7.85143 1.60509L7.95192 1.11529ZM10.9304 2.75736L11.2893 2.40932V2.40932L10.9304 2.75736ZM12.3917 5.28571L12.2585 5.76765C12.3876 5.80333 12.5256 5.78572 12.6416 5.71875C12.7576 5.65179 12.8419 5.54108 12.8756 5.41143L12.3917 5.28571ZM12.6553 9.48243C12.7582 9.22618 12.6339 8.93503 12.3777 8.83212C12.1214 8.72921 11.8303 8.85352 11.7274 9.10977L12.6553 9.48243ZM10.0489 11.9888L10.3326 12.4005L10.0489 11.9888ZM2.70378 11.2426L2.3448 11.5907H2.3448L2.70378 11.2426ZM13.4839 3.06967C13.5534 2.8024 13.393 2.52945 13.1257 2.46002C12.8584 2.39059 12.5855 2.55097 12.5161 2.81824L13.4839 3.06967ZM10.2545 4.17631C9.98833 4.10275 9.71292 4.25888 9.63936 4.52505C9.5658 4.79121 9.72194 5.06661 9.9881 5.14018L10.2545 4.17631ZM6.64286 5.28571C6.64286 5.00957 6.419 4.78571 6.14286 4.78571C5.86671 4.78571 5.64286 5.00957 5.64286 5.28571H6.64286ZM6.14286 7.85714H5.64286C5.64286 8.13329 5.86671 8.35714 6.14286 8.35714V7.85714ZM8.71429 8.35714C8.99043 8.35714 9.21429 8.13329 9.21429 7.85714C9.21429 7.581 8.99043 7.35714 8.71429 7.35714V8.35714ZM1.5 7C1.5 5.90882 1.81378 4.84335 2.39999 3.93843L1.56071 3.39473C0.868552 4.4632 0.5 5.71781 0.5 7H1.5ZM2.39999 3.93843C2.98611 3.03366 3.81757 2.33088 4.78742 1.91652L4.39453 0.996931C3.23852 1.49083 2.25297 2.32611 1.56071 3.39473L2.39999 3.93843ZM4.78742 1.91652C5.75708 1.50224 6.82312 1.39411 7.85143 1.60509L8.05241 0.625493C6.82392 0.373447 5.55073 0.502957 4.39453 0.996931L4.78742 1.91652ZM7.85143 1.60509C8.87986 1.81609 9.82671 2.33732 10.5714 3.1054L11.2893 2.40932C10.4069 1.49917 9.28079 0.877517 8.05241 0.625493L7.85143 1.60509ZM10.5714 3.1054C11.1986 3.7523 11.6585 4.54983 11.9113 5.42455L12.872 5.14687C12.5745 4.1175 12.0323 3.17564 11.2893 2.40932L10.5714 3.1054ZM11.7274 9.10977C11.323 10.1166 10.6394 10.9746 9.76512 11.5771L10.3326 12.4005C11.3716 11.6845 12.1791 10.6684 12.6553 9.48243L11.7274 9.10977ZM9.76512 11.5771C8.89108 12.1795 7.86518 12.5 6.81707 12.5V13.5C8.06998 13.5 9.29342 13.1167 10.3326 12.4005L9.76512 11.5771ZM6.81707 12.5C5.41198 12.5 4.06119 11.9244 3.06276 10.8946L2.3448 11.5907C3.5282 12.8113 5.1366 13.5 6.81707 13.5V12.5ZM3.06276 10.8946C2.06383 9.86426 1.5 8.4636 1.5 7H0.5C0.5 8.719 1.1619 10.3706 2.3448 11.5907L3.06276 10.8946ZM12.5161 2.81824L11.9077 5.16L12.8756 5.41143L13.4839 3.06967L12.5161 2.81824ZM12.5249 4.80378L10.2545 4.17631L9.9881 5.14018L12.2585 5.76765L12.5249 4.80378ZM5.64286 5.28571V7.85714H6.64286V5.28571H5.64286ZM6.14286 8.35714H8.71429V7.35714H6.14286V8.35714Z" fill="white"/>
</svg>
